# xmcd CD database file
# Copyright (C) 1993-1996 Ti Kan
#
# Track frame offsets:
# 150
# 14667
# 28322
# 42355
# 55987
# 70020
# 84180
# 97115
# 110915
# 124280
# 137727
# 151950
# 165250
# 178260
# 192465
# 208145
#
# Disc length: 2958 seconds
#
# Revision: 0
# Processed by: cddbd v1.4b41PL1 Copyright (c) Steve Scherf et al.
# Submitted via: inCDius 1.1b5
#
DISCID=eb0b8c10
DTITLE=Uncle Dave Macon - Uncle Dave Macon /The Country Music Hall Of Fame
DYEAR=1900
DGENRE=
TTITLE0=From Earth To Heaven 
TTITLE1=Farm Relief
TTITLE2=Tom And Jerry
TTITLE3=I'm The Child To Fight
TTITLE4=Go Along Mule
TTITLE5=Governor Al Smith
TTITLE6=Late Last Night When My Willie Came Home
TTITLE7=Tell Her To Come Back Home
TTITLE8=Tennessee Jubilee
TTITLE9=The Cross-Eyed Butcher And The Cacklin' Hen
TTITLE10=Sleepy Lou
TTITLE11=Sourwood Mountain Medley
TTITLE12=Uncle Dave's Travels- Part 1 (Misery In Arkansas)
TTITLE13=I'm A - Goin' Away In The Morn
TTITLE14=Shall We Gather At The River
TTITLE15=When The Train Comes Along
EXTD=
EXTT0=
EXTT1=
EXTT2=
EXTT3=
EXTT4=
EXTT5=
EXTT6=
EXTT7=
EXTT8=
EXTT9=
EXTT10=
EXTT11=
EXTT12=
EXTT13=
EXTT14=
EXTT15=
PLAYORDER=
